<svg width="300" height="79" viewBox="0 0 300 79" fill="none" xmlns="http://www.w3.org/2000/svg">
<path d="M104.008 52.2546H119.321L120.144 53.1837L119.321 58.3456H96.2998V22.832H104.111V52.2546H104.008Z" fill="#3B352B"/>
<path d="M134.224 52.8741C137.204 52.8741 139.157 52.3579 141.212 51.3255L142.959 55.455L142.651 57.0036C139.465 58.5521 136.896 58.9651 133.299 58.9651C126.002 58.9651 120.657 55.7647 120.657 46.5766C120.657 37.6982 126.413 33.3623 133.607 33.3623C141.623 33.3623 144.295 38.2144 144.295 46.4734L143.37 47.5058H128.571C128.674 50.8093 130.318 52.8741 134.224 52.8741ZM137.101 43.1698C136.998 40.5889 135.765 38.5242 133.299 38.5242C131.346 38.5242 129.188 39.5565 128.571 43.3763L137.101 43.1698Z" fill="#3B352B"/>
<path d="M162.898 33.775L163.823 34.8074L163.104 39.2466H156.732V49.3638C156.732 51.8415 157.965 52.7706 159.815 52.7706C161.048 52.7706 162.281 52.4609 163.72 52.048L165.365 56.6936L164.645 57.9325C162.487 58.5519 159.712 59.1713 156.937 59.1713C152.518 59.1713 149.023 57.313 149.023 52.048V39.3498H146.146L145.221 38.3174L145.94 34.188H149.023V26.4452L155.601 25.3096L156.629 26.2387V34.0847L162.898 33.775Z" fill="#3B352B"/>
<path d="M165.981 46.2669C165.981 38.008 171.223 33.3623 179.445 33.3623C187.564 33.3623 192.908 36.4594 192.908 46.2669C192.908 54.5259 187.667 59.0683 179.445 59.0683C171.326 59.0683 165.981 55.9712 165.981 46.2669ZM184.892 46.2669C184.892 41.6213 182.323 38.4209 179.239 38.4209C176.156 38.4209 173.998 40.4857 173.998 46.2669C173.998 50.8094 176.464 54.1129 179.548 54.1129C182.631 54.0097 184.892 52.0482 184.892 46.2669Z" fill="#3B352B"/>
<path d="M219.322 34.0846L219.938 35.2202L210.894 45.0277V45.4407L221.274 57.2097L220.658 58.3453H212.436L202.981 45.6471V58.3453H195.272V20.9735L201.85 19.8379L202.878 20.767V45.5439L211.819 33.9813H219.322V34.0846Z" fill="#3B352B"/>
<path d="M232.58 58.3456H224.872V40.0727C224.872 38.3177 223.535 38.008 221.891 38.5242C220.041 36.7691 220.761 33.3623 227.03 33.3623C230.319 33.3623 232.066 34.4979 232.271 38.5242C234.019 35.2206 237.205 33.3623 240.391 33.3623C241.932 33.3623 243.474 33.7752 244.707 34.4979L245.118 35.84L242.549 41.7245L241.11 42.0342C240.082 41.1051 238.849 40.5889 237.616 40.5889C235.971 40.5889 234.019 41.3116 232.477 43.1698V58.3456H232.58Z" fill="#3B352B"/>
<path d="M253.854 33.3623L254.882 34.2914V48.6414C254.882 51.6352 256.629 53.0805 258.582 53.0805C260.226 53.0805 261.562 52.7709 263.412 51.3255V34.6011L269.99 33.4655L271.017 34.3947V52.4612C271.017 54.2162 272.353 54.5259 273.998 54.0097C275.848 55.7647 275.026 59.1716 268.859 59.1716C265.57 59.1716 264.44 58.1392 263.823 55.868C261.665 57.9327 258.787 59.1716 254.984 59.1716C249.743 59.1716 247.276 56.0744 247.276 50.2932V34.6011L253.854 33.3623Z" fill="#3B352B"/>
<path d="M283.967 58.3453H276.259V20.9735L282.836 19.8379L283.864 20.767V36.2526C286.228 34.2911 288.9 33.3619 292.292 33.3619C297.43 33.3619 300 36.459 300 42.2403V58.3453H292.292V43.7889C292.292 40.795 290.545 39.3497 288.592 39.3497C286.947 39.3497 285.611 39.6594 283.761 41.1047V58.3453H283.967Z" fill="#3B352B"/>
<path d="M60.74 46.7823C61.1511 46.3694 61.4594 45.9564 61.8705 45.5435C62.2816 45.1305 62.6927 44.8208 63.1038 44.3046C63.926 43.4787 64.6454 42.4464 65.1593 41.3108C65.6732 40.1752 65.8787 38.8331 65.776 37.5942C65.6732 36.3554 65.1593 35.1165 64.5426 34.0842C64.2343 33.568 63.926 33.0518 63.5149 32.6389L62.4871 31.2968L58.2734 26.0317V26.1349C57.6567 25.1026 56.9373 24.3799 56.1151 23.6572C55.2929 22.9346 54.4707 22.2119 53.6485 21.5925C51.9013 20.3536 50.0514 19.3213 48.0987 18.4954C46.1459 17.6695 44.0904 17.0501 42.0349 16.6371C39.9794 16.1209 37.6156 16.121 35.5601 16.8436C33.5046 17.463 31.6547 18.4954 29.8047 19.3213C28.8798 19.7342 27.9548 20.044 26.927 20.3537C25.8993 20.6634 24.9743 20.8698 23.9465 21.0763C22.9188 21.386 21.8911 21.5925 20.9661 22.1087C19.9383 22.5216 19.0134 23.1411 18.1912 23.7605C17.369 24.4831 16.5468 25.2058 15.9301 26.0317C15.6218 26.4447 15.3135 26.8576 15.0051 27.3738L14.7996 27.6835C14.6968 27.7867 14.594 27.89 14.594 28.0964C14.4913 28.4062 14.3885 28.6126 14.2857 28.9223C13.9774 29.9547 13.6691 30.8839 13.258 31.813C13.0524 32.2259 12.8469 32.7421 12.5385 33.1551L12.1274 33.8777L11.8191 34.6004C11.0997 36.7683 11.2025 38.9363 11.6136 41.0011C12.5385 45.1306 14.4913 48.9503 17.1634 52.2539C18.4995 53.9057 19.8356 55.4542 21.48 56.7963C23.1244 58.1384 24.8715 59.274 26.6187 60.2032C28.4686 61.2355 30.3186 62.1646 32.1685 62.9905C33.0935 63.4035 34.1213 63.8164 35.0462 64.1262C36.074 64.4359 36.999 64.8488 38.0267 65.0553C40.2878 65.0553 42.5488 64.5391 44.7071 63.7132C45.7348 63.3003 46.7626 62.7841 47.7903 62.2679C48.8181 61.6485 49.7431 61.1323 50.668 60.3064C52.3124 58.6546 53.7513 56.8996 54.9846 54.9381C56.2179 52.9766 57.2456 51.0151 58.6845 49.3633C59.3011 48.4341 60.0205 47.505 60.74 46.7823ZM54.0596 54.4219C53.0319 56.3834 51.6958 58.2416 50.1542 59.8934C48.5098 61.3387 46.557 62.4743 44.5015 63.4035C42.446 64.2294 40.185 64.8488 38.0267 64.8488C37.1017 64.6423 36.074 64.2294 35.149 63.9197C34.224 63.5067 33.1963 63.197 32.2713 62.7841C30.4214 61.9582 28.5714 61.029 26.7215 59.9967C24.9743 58.9643 23.2271 57.8287 21.6855 56.4866C20.1439 55.1445 18.8078 53.596 17.5745 51.9442C15.1079 48.6406 13.258 44.8208 12.4358 40.8978C12.0247 38.9363 12.0247 36.7683 12.6413 35.0133L12.9496 34.3939L13.3607 33.6712C13.5663 33.1551 13.8746 32.7421 14.0802 32.2259C14.4913 31.2968 14.9024 30.2644 15.2107 29.2321C15.3135 29.0256 15.4162 28.8191 15.519 28.6126C15.6218 28.4062 15.7246 28.1997 15.9301 27.9932C16.2384 27.5803 16.5468 27.1673 16.8551 26.7543C17.4717 25.9284 18.1912 25.3091 18.9106 24.5864C20.4522 23.3475 22.3022 22.6249 24.3577 22.2119C25.3854 22.0054 26.4131 21.799 27.3381 21.4893C28.3659 21.1796 29.3936 20.8699 30.3186 20.4569C32.2713 19.631 34.1213 18.7019 35.9712 18.0824C37.8212 17.5663 39.8767 17.5662 41.7266 17.9792C43.6793 18.3921 45.6321 19.0116 47.482 19.8375C49.332 20.6634 51.0791 21.5925 52.7235 22.8314C53.5457 23.4508 54.2652 24.0702 54.9846 24.7928C55.704 25.5155 56.4234 26.2382 56.8345 26.9608L61.0483 32.3292L62.076 33.6712C62.3844 34.0842 62.6927 34.4971 63.001 34.9101C63.5149 35.8392 63.926 36.7683 64.0288 37.6975C64.2343 39.659 63.4121 41.6205 61.9733 43.1691C61.6649 43.582 61.2539 43.9949 60.8428 44.4079C60.4317 44.8208 60.0205 45.2338 59.7122 45.6467C58.89 46.4726 58.1706 47.4018 57.554 48.3309C56.1151 50.2924 55.0874 52.4604 54.0596 54.4219ZM53.5457 25.722C51.4902 23.9669 49.1264 22.5216 46.557 21.6957C45.9404 21.4893 45.221 21.2828 44.6043 21.2828C43.9877 21.1796 43.2682 21.0763 42.5488 21.0763C41.2127 20.9731 39.7739 21.1796 38.4378 21.6957C37.1017 22.2119 35.9712 23.1411 35.0462 23.967C34.1213 24.8961 33.1963 25.8252 32.1685 26.1349C31.1408 26.5479 29.9075 26.2382 28.5714 26.0317C27.2353 25.8252 25.8993 25.722 24.5632 25.8252C23.2271 25.9285 21.7883 26.4446 20.7605 27.3738C19.63 28.1997 18.9106 29.4385 18.1912 30.5741C17.6773 31.813 17.1634 33.0518 16.6495 34.1874L15.9301 35.9425L15.6218 36.8716C15.519 37.1813 15.519 37.5942 15.4162 37.904C15.2107 39.246 15.4162 40.6914 15.8273 41.9302C16.2384 43.169 16.7523 44.4079 17.4717 45.5435C18.8078 47.8147 20.6578 49.7762 22.6105 51.5312C23.6382 52.3571 24.7688 53.0798 25.6937 53.9057C26.7215 54.7316 27.7492 55.5575 28.6742 56.3834C30.6269 58.0352 32.888 59.5837 35.3546 60.4096C35.9712 60.6161 36.6906 60.6161 37.3073 60.4096C37.9239 60.2031 38.4378 59.7902 38.9517 59.3772C39.9794 58.5513 40.9044 57.6222 41.8294 56.6931C42.7544 55.8672 43.7821 55.0413 44.9126 54.3186C45.9404 53.596 47.0709 52.7701 48.0987 52.0474C50.1542 50.4989 52.3124 48.9503 54.2652 47.1953C55.1901 46.2662 56.2179 45.4403 57.0401 44.2014C57.8623 43.0658 58.4789 41.827 58.89 40.4849C59.6094 37.8007 59.3011 34.8069 58.2734 32.3292C57.2456 29.7482 55.6012 27.5802 53.5457 25.722ZM57.3484 40.0719C57.0401 41.2076 56.5262 42.3431 55.9096 43.3755C55.2929 44.4079 54.3679 45.337 53.443 46.1629C51.593 48.0212 49.6403 49.673 47.6876 51.3248C46.6598 52.1507 45.7348 52.9766 44.7071 53.8025C43.6793 54.6283 42.6516 55.4542 41.7266 56.3834C40.8016 57.3125 39.8767 58.2417 38.9517 59.1708C38.4378 59.5837 37.9239 59.9967 37.3073 60.2032C36.6906 60.4096 36.074 60.4096 35.4574 60.2032C32.9908 59.3773 30.8325 57.9319 28.8797 56.2801C27.852 55.4542 26.927 54.5251 25.8993 53.6992C24.8715 52.8733 23.8438 52.1507 22.816 51.3248C20.8633 49.5697 19.2189 47.6082 17.9856 45.337C17.369 44.2014 16.8551 43.0658 16.5468 41.827C16.2384 40.5881 16.1357 39.3493 16.2384 38.1104C16.3412 37.8007 16.3412 37.491 16.444 37.1813L16.7523 36.3554L17.5745 34.6004C18.0884 33.3615 18.6023 32.1227 19.1161 30.9871C19.7328 29.9547 20.4522 28.8191 21.3772 28.1997C22.3021 27.477 23.5355 27.0641 24.666 26.9608C25.8993 26.8576 27.1326 26.9608 28.3659 27.1673C28.9825 27.2706 29.5992 27.3738 30.3186 27.477C30.6269 27.477 31.038 27.5803 31.3464 27.477C31.7575 27.477 32.0658 27.3738 32.4769 27.2705C33.9157 26.7543 34.8407 25.722 35.7657 24.8961C36.6906 24.0702 37.6156 23.3475 38.7461 22.9346C39.8767 22.5216 41.11 22.4184 42.3433 22.5217C42.9599 22.5217 43.5766 22.6249 44.1932 22.7281C44.8099 22.8313 45.4265 23.0378 45.9404 23.141C48.3042 23.8637 50.4625 25.309 52.3124 26.9608C54.1624 28.6126 55.6012 30.6774 56.5262 32.9486C57.6567 35.2198 57.965 37.6975 57.3484 40.0719ZM51.9013 36.2522C52.4152 37.6975 52.518 39.246 52.1069 40.6913C51.6958 42.2399 50.7708 43.4788 49.6403 44.5111C47.482 46.6791 44.9126 48.2277 42.5488 49.8795C41.4183 50.7054 40.2878 51.6345 39.3628 52.6668L37.9239 54.3186C37.4101 54.8348 36.999 55.4543 36.074 55.9704C35.9712 56.0737 35.7657 56.0737 35.6629 56.1769C35.5601 56.1769 35.4573 56.1769 35.3546 56.1769H35.2518C35.149 56.1769 35.149 56.1769 35.0462 56.1769C34.8407 56.1769 34.8407 56.0737 34.7379 56.0737C34.6351 56.0737 34.6351 55.9704 34.5324 55.9704C34.4296 55.8672 34.3268 55.8672 34.224 55.764C33.9157 55.5575 33.6074 55.2478 33.2991 55.0413C32.6824 54.5251 32.1685 54.0089 31.6547 53.596C31.1408 53.0798 30.6269 52.6668 30.0103 52.1507C29.4964 51.7377 28.8798 51.3248 28.2631 50.8086C25.8993 49.0536 23.4327 47.1953 21.5827 44.7176C20.6578 43.4788 19.9383 42.0334 19.63 40.4849C19.3217 38.9363 19.4245 37.2845 20.0411 35.8392C20.3494 35.1166 20.6578 34.3939 21.0689 33.7745C21.48 33.1551 21.9938 32.5356 22.7132 32.0194C23.9465 30.9871 25.591 30.5741 27.1326 30.5741C27.9548 30.5741 28.6742 30.6774 29.3936 30.8838C30.113 31.0903 30.8325 31.2968 31.5519 31.7097C32.2713 32.1227 32.7852 32.6389 33.2991 33.2583C33.6074 33.6712 33.9157 34.1874 34.1213 34.6004C35.149 33.2583 36.1768 31.813 37.5128 30.5741C38.2323 29.9547 39.1572 29.4385 40.185 29.1288C41.11 28.8191 42.1377 28.7159 43.1655 28.9223C45.1182 29.1288 47.0709 30.058 48.5098 31.2968C50.2569 32.7421 51.3875 34.3939 51.9013 36.2522H51.6958C51.0791 34.3939 49.9486 32.8453 48.407 31.6065C46.8654 30.3677 45.1182 29.645 43.1655 29.4385C41.3155 29.232 39.3628 29.8515 38.0267 31.1936C36.5879 32.4324 35.5601 34.0842 34.4296 35.6327L34.0185 36.1489L33.7102 35.5295C32.9907 34.2906 32.2713 33.0518 31.038 32.4324C30.4214 32.1227 29.8047 31.9162 29.0853 31.7097C28.3659 31.5033 27.7492 31.5033 27.0298 31.5033C25.6937 31.5033 24.2549 31.9162 23.2271 32.7421C22.7132 33.1551 22.3021 33.6712 21.891 34.2907C21.5827 34.9101 21.2744 35.5295 21.0689 36.1489C20.6578 37.491 20.555 38.8331 20.8633 40.1752C21.1716 41.5172 21.7883 42.7561 22.7132 43.8917C24.4604 46.1629 26.8243 47.8147 29.1881 49.4665C29.8047 49.8794 30.4214 50.2924 31.038 50.8086C31.6547 51.3248 32.1685 51.7377 32.7852 52.2539L34.4296 53.6992C34.7379 53.9057 34.9435 54.2154 35.2518 54.3186L35.3546 54.4219C35.6629 54.2154 36.2795 53.6992 36.6906 53.183C37.2045 52.6668 37.7184 52.0474 38.2323 51.5312C39.26 50.3956 40.4933 49.4665 41.7266 48.6406C42.9599 47.8147 44.1932 46.9888 45.4265 46.2662C46.6598 45.4403 47.8931 44.7176 48.9209 43.7885C49.9486 42.8593 50.8736 41.7237 51.4902 40.4849C52.0041 39.1428 52.0041 37.6975 51.6958 36.2522H51.9013ZM79.1367 35.4263C78.8284 30.3677 77.2868 25.4123 74.5118 21.1796C71.8397 16.9468 68.2426 13.3336 64.4399 10.03C60.6372 6.72638 56.5262 3.73252 51.7986 1.87425C49.4347 0.945117 46.9681 0.325682 44.3988 0.119208C41.8294 -0.0872662 39.3628 0.0159708 36.8962 0.119208C31.8602 0.532156 26.927 1.2548 22.0966 3.00983C19.7328 3.83573 17.369 5.07457 15.4162 6.62313C13.3607 8.17168 11.5108 9.92671 9.86638 11.785C6.57759 15.6047 4.11099 20.1472 2.46659 24.9993C0.822193 29.7482 0 34.9101 0 39.9687C0 45.1306 1.54162 50.1892 3.80267 54.7316C6.16649 59.274 9.24973 63.3002 12.6413 67.0168C16.1357 70.7333 20.2467 73.8304 24.8715 75.9984C29.4964 78.1664 34.6351 79.0955 39.7739 78.9923C44.8099 78.889 49.9486 77.8567 54.4707 75.4822C58.9928 73.1078 62.6927 69.4945 65.9815 65.778L66.187 65.5715L66.0843 65.2618C65.5704 64.2294 64.9538 63.4035 64.2343 62.4744C63.926 62.0614 63.5149 61.6485 63.1038 61.3387C62.6927 61.029 62.3844 60.6161 61.9733 60.2032C61.1511 59.274 60.3289 58.3449 59.6095 57.4157C60.6372 58.2416 61.665 58.9643 62.6927 59.7902C63.6177 60.4096 64.5427 61.029 65.4676 61.5452C65.9815 61.8549 66.3926 62.0614 66.9065 62.2679L67.6259 62.5776L68.037 62.7841L68.2425 62.8873H68.3453C68.3453 62.8873 68.3453 62.8873 68.4481 62.8873C69.2703 61.8549 69.9897 60.8226 70.7091 59.8934C71.4286 58.8611 72.148 57.8287 72.7646 56.7963C74.1007 54.6283 75.2312 52.4604 76.259 50.1892C77.2867 47.9179 78.0062 45.5435 78.52 43.0658C79.1367 40.4849 79.2395 37.904 79.1367 35.4263ZM57.554 55.6607C58.3762 56.7963 59.1984 57.8287 60.0206 58.8611C59.7122 59.3772 59.5067 59.7902 59.1983 60.3064C58.4789 62.0614 57.1429 63.5067 55.704 64.6423C54.1624 65.7779 52.518 66.6038 50.668 67.2233C47.0709 68.3589 43.1655 68.4621 39.4656 68.1524C31.963 67.4297 24.7688 64.2294 18.705 59.687C12.8469 55.0413 8.83864 47.8147 8.94142 40.2784C8.94142 38.4201 9.24974 36.4586 9.45529 34.6004C9.76362 32.7421 10.1747 30.8838 10.7914 29.1288C11.408 27.3738 12.333 25.8252 13.5663 24.3799C14.1829 23.6572 14.7996 22.9346 15.4162 22.1087L16.2384 20.9731C16.5468 20.6634 16.8551 20.2504 17.1634 19.9407C19.63 17.2566 23.5355 16.6371 27.1326 15.0886C30.7297 13.6433 34.1213 11.8882 37.7184 11.1656C38.6434 10.9591 39.4656 10.8559 40.3905 10.8559C40.8016 10.8559 41.2127 10.8559 41.7266 10.9591C42.1377 11.0623 42.5488 11.1656 43.0627 11.2688C44.9126 11.785 46.6598 12.3012 48.5098 12.9206C50.2569 13.54 52.0041 14.2627 53.5457 15.1918C55.1901 16.121 56.629 17.2565 57.9651 18.4954C60.74 20.9731 62.7955 24.1734 64.6454 27.477C65.5704 29.1288 66.5982 30.8839 67.8315 32.3292C68.962 33.7745 69.7842 35.4263 69.887 37.1813C69.9897 38.9363 69.5786 40.7946 68.8592 42.5496C68.5509 43.3755 68.037 44.2014 67.6259 45.0273C67.112 45.8532 66.5981 46.5759 66.0843 47.4017C64.1315 50.6021 62.3844 53.9057 60.74 57.2093C59.815 56.4866 58.9928 55.764 58.0678 55.0413L56.1151 53.4928L57.554 55.6607ZM60.8428 57.6222C62.6927 54.4219 64.5426 51.1183 66.7009 48.0212C67.8314 46.4726 68.962 44.8208 69.6814 43.0658C70.5036 41.3108 71.0175 39.3493 70.9147 37.2845C70.8119 35.2198 69.9897 33.2583 68.7564 31.7097C67.5231 30.2644 66.7009 28.6126 65.776 26.9608C64.851 25.309 63.926 23.6573 62.7955 22.0055C61.6649 20.3537 60.4317 18.9083 58.9928 17.5663C57.554 16.2242 56.0123 14.9853 54.2652 13.953C52.518 13.0238 50.7708 12.1979 48.9209 11.5785C47.0709 10.9591 45.221 10.4429 43.371 9.92672C42.9599 9.82349 42.446 9.61703 41.9322 9.61703C41.4183 9.51379 40.9044 9.51378 40.3905 9.51378C39.3628 9.51378 38.335 9.61701 37.4101 9.82348C33.5046 10.7526 30.113 12.6109 26.6187 14.0562C24.8715 14.7789 23.1244 15.3983 21.2744 16.1209C19.5272 16.8436 17.6773 17.876 16.2384 19.3213C15.8273 19.631 15.6218 20.044 15.2107 20.4569L14.3885 21.5925C13.8746 22.3152 13.1552 23.0378 12.6413 23.7605C11.408 25.309 10.3803 27.0641 9.66084 28.9223C8.94141 30.7806 8.63308 32.7421 8.32476 34.6004C8.01643 36.5619 7.81089 38.4201 7.81089 40.3816C7.81089 44.3046 8.83864 48.2276 10.6886 51.6345C12.5385 55.0413 15.0051 58.1384 18.1912 60.5129C24.3577 65.1585 31.6547 68.2556 39.3628 68.8751C43.1655 69.1848 47.0709 68.9783 50.7708 67.7394C52.6208 67.12 54.3679 66.2941 55.8068 65.0553C57.3484 63.8164 58.5817 62.3711 59.3011 60.5129C59.6095 60.0999 59.815 59.5837 60.1233 59.1708C60.5344 59.687 61.0483 60.3064 61.4594 60.8226C61.7677 61.2355 62.1788 61.6485 62.5899 61.9582C62.6927 62.0614 62.7955 62.1646 62.8983 62.3711C61.2539 64.2294 59.4039 65.9844 57.554 67.533C56.5262 68.3589 55.6012 69.1848 54.5735 69.8042C53.443 70.5268 52.4152 71.2495 51.2847 71.7657C50.1542 72.2819 49.0236 72.6948 47.7903 72.7981C47.1737 72.9013 46.557 72.9013 45.9404 72.9013H43.9877C41.4183 72.9013 38.8489 73.0045 36.2795 72.9013C33.7102 72.7981 31.2436 72.6948 29.0853 71.5592C26.927 70.4236 24.7688 69.0815 22.6105 67.6362C20.555 66.1909 18.4995 64.6423 16.6495 62.9905C16.2384 62.5776 15.7246 62.1647 15.3135 61.6485C15.1079 61.442 14.9024 61.2355 14.6968 60.9258C14.4913 60.6161 14.2857 60.4096 14.0802 60.0999C13.1552 59.0675 12.2302 58.2416 11.408 57.3125C9.66083 55.4542 8.22199 53.4927 7.19425 51.1183C6.68037 49.9827 6.37204 48.7438 6.06371 47.505C5.75539 46.2661 5.65261 45.0273 5.44706 43.7885C4.83041 38.7298 5.03596 33.568 6.47481 28.6126C7.19423 26.2382 8.22199 23.8637 9.66084 21.799C9.96916 21.2828 10.3803 20.7666 10.7914 20.3537C11.2025 19.9407 11.6136 19.4245 12.1274 19.0116C13.0524 18.0824 13.9774 17.1533 14.7996 16.2242C16.5468 14.2627 17.8828 12.0947 19.9383 10.5462C21.9938 8.9976 24.3576 8.06845 26.8242 7.24256C27.9548 6.72637 29.1881 6.41666 30.5242 6.21019C31.7575 6.00371 33.0935 5.90049 34.3268 5.90049C37.7184 6.10696 41.0072 6.93286 44.3988 7.55229C47.6876 8.27494 51.1819 8.48141 53.9568 10.03C55.2929 10.7526 56.629 11.8882 57.6567 13.0238C58.7873 14.2627 59.9178 15.6048 60.9455 16.8436C63.2066 19.4245 65.4676 22.0054 68.1398 24.2767C69.4758 25.309 70.5036 26.5479 71.4286 27.89C72.3536 29.232 73.073 30.7806 73.4841 32.3292C73.8952 33.8777 74.1007 35.5295 73.7924 37.1813C73.6896 38.0072 73.4841 38.8331 73.1758 39.5558C72.8674 40.3817 72.5591 41.2075 72.3535 42.0334C71.8397 43.6852 71.4286 45.337 71.1202 46.9888C70.7092 48.6406 70.4008 50.2924 69.7842 51.9442C69.1675 53.4928 68.3453 54.9381 67.2148 56.2801C66.7009 56.8996 66.0843 57.519 65.5704 58.1384C65.0565 58.7578 64.5426 59.3772 64.0288 59.8934C63.6177 59.5837 63.2066 59.274 62.6927 58.9643C62.2816 58.7578 61.5622 58.2417 60.8428 57.6222ZM76.0535 49.9827C74.1007 54.5251 71.4286 58.8611 68.5509 62.7841L67.112 62.0614C66.5981 61.8549 66.187 61.5452 65.6732 61.2355C65.2621 61.0291 64.851 60.7193 64.4399 60.4096C64.9538 59.7902 65.4676 59.274 66.0843 58.6546C66.7009 58.0352 67.3176 57.4157 67.8315 56.7963C68.962 55.4542 69.8869 54.0089 70.6064 52.4604C71.3258 50.8086 71.6341 49.1568 72.0452 47.505C72.4563 45.8532 72.8674 44.2014 73.4841 42.6529C73.7924 41.827 74.1007 41.1043 74.409 40.2784C74.7174 39.4525 75.0257 38.6266 75.1285 37.6975C75.4368 35.9424 75.334 34.0842 74.9229 32.4324C74.5118 30.6774 73.7924 29.1288 72.7646 27.5803C71.8397 26.1349 70.7092 24.6896 69.3731 23.554C66.9065 21.2828 64.7482 18.7019 62.5899 16.0177C61.4594 14.6756 60.4317 13.3336 59.3011 12.0947C58.0678 10.7526 56.7318 9.61701 55.0874 8.79111C53.443 7.96521 51.6958 7.55227 49.9486 7.24256C48.2014 6.93284 46.557 6.72639 44.9126 6.51992L39.8767 5.90049C38.1295 5.79725 36.4851 5.69401 34.7379 5.79724C33.4018 5.79724 32.1686 5.90049 30.8325 6.00373C29.5992 6.2102 28.2631 6.41667 27.0298 6.93286C24.5632 7.75875 22.0966 8.58465 19.9383 10.1332C18.9106 10.9591 17.9856 11.8882 17.1634 12.8173C16.3412 13.8497 15.519 14.7789 14.6968 15.708C13.8746 16.6371 12.9496 17.5663 12.0247 18.3922C11.5108 18.8051 11.0997 19.3213 10.5858 19.7342C10.1747 20.2504 9.66083 20.7666 9.35251 21.2828C7.70811 23.3475 6.68037 25.8252 5.85817 28.3029C4.31654 33.3615 4.111 38.6266 4.62487 43.7885C4.83042 45.1305 4.93319 46.3694 5.24151 47.7115C5.54984 49.0536 5.85817 50.2924 6.37204 51.5312C7.39979 54.0089 8.94141 56.2802 10.6886 58.1384C11.5108 59.0676 12.4358 59.9967 13.258 60.9258C13.4635 61.1323 13.6691 61.442 13.7718 61.6485C13.9774 61.8549 14.1829 62.1646 14.3885 62.4744C14.7996 62.9905 15.3135 63.5067 15.8273 63.9197C17.7801 65.7779 19.8355 67.3265 21.891 68.8751C24.0493 70.4236 26.2076 71.8689 28.5714 73.0045C29.8047 73.624 31.1408 73.9337 32.4769 74.1402C33.8129 74.3466 35.149 74.3466 36.3823 74.3466C38.9517 74.3466 41.5211 74.1402 44.0904 74.1402L46.0432 74.0369C46.6598 74.0369 47.3792 73.9337 48.0987 73.8304C49.4347 73.624 50.7708 73.1078 51.9013 72.4884C53.0319 71.8689 54.0596 71.043 55.1901 70.3204C56.3207 69.4945 57.2456 68.6686 58.1706 67.7394C59.9178 65.9844 61.665 64.1262 63.2066 62.1647C63.4121 62.3711 63.6177 62.5776 63.7205 62.7841C64.2343 63.5067 64.7482 64.2294 65.1593 65.0553C61.8705 68.6686 58.2734 71.8689 54.0596 74.0369C49.7431 76.2049 44.8099 77.2373 39.9794 77.2373C35.149 77.2373 30.2158 76.3081 25.8993 74.2434C21.48 72.1786 17.5745 69.1848 14.1829 65.5715C10.7914 61.9582 7.81089 58.0352 5.54984 53.6992C3.28879 49.3633 1.84995 44.6144 1.74717 39.7622C1.6444 29.9547 4.72763 19.9407 11.0997 12.4044C12.6413 10.5461 14.4913 8.79112 16.444 7.3458C18.3967 5.79724 20.555 4.76488 22.816 3.83575C27.4409 2.18395 32.3741 1.35804 37.3073 0.945091C39.7739 0.738617 42.2405 0.635405 44.7071 0.841879C47.1737 1.04835 49.5375 1.66775 51.7986 2.49365C56.4234 4.24868 60.4317 7.13932 64.2343 10.3397C68.037 13.54 71.5313 17.0501 74.3063 21.2828C76.9784 25.4123 78.6228 30.2644 78.9311 35.2198C79.1367 40.3816 77.9034 45.337 76.0535 49.9827Z" fill="#CB2F1D"/>
</svg>
