<?xml version="1.0" encoding="UTF-8" standalone="no"?>
<svg
   width="1152"
   height="768"
   viewBox="0 0 1152.0001 768"
   version="1.1"
   xml:space="preserve"
   style="clip-rule:evenodd;fill-rule:evenodd;stroke-linejoin:round;stroke-miterlimit:2"
   id="svg183"
   sodipodi:docname="sbirka-default.svg"
   inkscape:version="1.2.2 (732a01da63, 2022-12-09)"
   xmlns:inkscape="http://www.inkscape.org/namespaces/inkscape"
   xmlns:sodipodi="http://sodipodi.sourceforge.net/DTD/sodipodi-0.dtd"
   xmlns="http://www.w3.org/2000/svg"
   xmlns:svg="http://www.w3.org/2000/svg"><defs
   id="defs187" /><sodipodi:namedview
   id="namedview185"
   pagecolor="#ffffff"
   bordercolor="#000000"
   borderopacity="0.25"
   inkscape:showpageshadow="2"
   inkscape:pageopacity="0.0"
   inkscape:pagecheckerboard="0"
   inkscape:deskcolor="#d1d1d1"
   showgrid="false"
   inkscape:zoom="0.57943472"
   inkscape:cx="1039.8065"
   inkscape:cy="453.02773"
   inkscape:window-width="1920"
   inkscape:window-height="1010"
   inkscape:window-x="1913"
   inkscape:window-y="-6"
   inkscape:window-maximized="1"
   inkscape:current-layer="svg183"><inkscape:page
     x="0"
     y="0"
     width="1152.0001"
     height="768"
     id="page665" /><inkscape:page
     x="1181.2882"
     y="-19.525423"
     width="0"
     height="82.983047"
     id="page667" /></sodipodi:namedview>
    <g
   transform="matrix(6,0,0,6.62069,-1464,-3124.737)"
   id="g4">
        <rect
   x="244"
   y="471.96545"
   width="192"
   height="115.99999"
   style="display:inline;fill:#f8f6f6;stroke-width:0.816497"
   id="rect2" />
    </g>
    <g
   transform="matrix(2.7224,0,0,2.7224,169.79,318.486)"
   id="g181">
        <g
   id="g10">
            <g
   id="g177">
                <g
   id="g14">
                    <g
   transform="translate(21.933,15.095)"
   id="g8">
                        <g
   id="g20">
                            <path
   id="path22"
   d="m -6.773,-3.385 c 10e-4,1.898 -1.561,3.461 -3.459,3.462 -0.001,0 -0.002,0 -0.003,0 -1.898,0 -3.459,-1.561 -3.46,-3.459 0,-10e-4 0,-10e-4 0,-0.002 0,-1.898 1.562,-3.46 3.46,-3.46 1.898,0 3.46,1.561 3.462,3.459"
   style="fill:#d73318;fill-rule:nonzero" />
                        </g>
                    </g>
                    <g
   transform="translate(21.936,23.336)"
   id="g12">
                        <g
   id="g24">
                            <path
   id="path26"
   d="m -6.773,-3.387 c 0,1.897 -1.561,3.459 -3.458,3.46 -10e-4,0 -0.003,0 -0.004,0 -1.897,0 -3.459,-1.561 -3.46,-3.458 0,-0.001 0,-0.001 0,-0.002 0,-1.899 1.562,-3.461 3.461,-3.462 1.898,0.001 3.459,1.563 3.46,3.461"
   style="fill:#d73318;fill-rule:nonzero" />
                        </g>
                    </g>
                    <g
   transform="translate(13.693,15.098)"
   id="g16">
                        <g
   id="g28">
                            <path
   id="path30"
   d="m -6.773,-3.385 c 10e-4,1.898 -1.56,3.46 -3.458,3.462 -10e-4,0 -10e-4,0 -0.002,0 -1.898,0 -3.459,-1.561 -3.46,-3.459 0,-1.898 1.561,-3.46 3.459,-3.462 1.898,0.001 3.459,1.561 3.461,3.459"
   style="fill:#d73318;fill-rule:nonzero" />
                        </g>
                    </g>
                    <g
   transform="translate(13.696,23.34)"
   id="g21">
                        <g
   id="g32">
                            <path
   id="path34"
   d="m -6.773,-3.387 c -0.001,1.897 -1.561,3.458 -3.458,3.46 -1.898,0.001 -3.46,-1.56 -3.462,-3.458 -0.001,-1.899 1.561,-3.462 3.46,-3.464 1.898,0.001 3.46,1.564 3.46,3.462"
   style="fill:#d73318;fill-rule:nonzero" />
                        </g>
                    </g>
                    <g
   transform="translate(38.408,15.089)"
   id="g25">
                        <g
   id="g36">
                            <path
   id="path38"
   d="m -6.773,-3.385 c 0,1.898 -1.561,3.46 -3.459,3.462 0,0 -0.001,0 -0.001,0 -1.898,0 -3.46,-1.562 -3.461,-3.46 0,-1.898 1.562,-3.46 3.46,-3.461 1.898,0.001 3.459,1.561 3.461,3.459"
   style="fill:#d73318;fill-rule:nonzero" />
                        </g>
                    </g>
                    <g
   transform="translate(38.411,23.33)"
   id="g29">
                        <g
   id="g40">
                            <path
   id="path42"
   d="m -6.773,-3.387 c 0,1.898 -1.561,3.459 -3.459,3.46 -1.898,0.001 -3.46,-1.56 -3.462,-3.458 -10e-4,-1.899 1.561,-3.462 3.46,-3.463 1.898,10e-4 3.46,1.563 3.461,3.461"
   style="fill:#d73318;fill-rule:nonzero" />
                        </g>
                    </g>
                    <g
   transform="translate(30.171,15.092)"
   id="g33">
                        <g
   id="g44">
                            <path
   id="path46"
   d="m -6.774,-3.385 c 0,1.898 -1.56,3.46 -3.458,3.462 -0.002,0 -0.004,0 -0.006,0 -1.898,0 -3.46,-1.561 -3.462,-3.459 0,0 0,-10e-4 0,-10e-4 0,-1.898 1.562,-3.46 3.46,-3.461 10e-4,0 0.003,0 0.004,0 1.898,0 3.46,1.561 3.462,3.459"
   style="fill:#d73318;fill-rule:nonzero" />
                        </g>
                    </g>
                    <g
   transform="translate(30.175,23.333)"
   id="g37">
                        <g
   id="g48">
                            <path
   id="path50"
   d="m -6.774,-3.386 c 0,1.898 -1.56,3.459 -3.458,3.461 -0.002,0 -0.005,0 -0.007,0 -1.898,0 -3.46,-1.561 -3.461,-3.459 0,0 0,-10e-4 0,-10e-4 0,-1.899 1.562,-3.461 3.461,-3.462 1.898,0 3.46,1.562 3.461,3.46"
   style="fill:#d73318;fill-rule:nonzero" />
                        </g>
                    </g>
                    <g
   transform="translate(54.887,15.082)"
   id="g41">
                        <g
   id="g52">
                            <path
   id="path54"
   d="m -6.775,-3.385 c 0.001,1.898 -1.56,3.46 -3.458,3.462 -0.002,0 -0.005,0 -0.007,0 -1.898,0 -3.459,-1.561 -3.46,-3.459 0,0 0,-10e-4 0,-10e-4 0,-1.899 1.562,-3.461 3.461,-3.461 0,0 0.001,0 0.001,0 1.898,-10e-4 3.461,1.561 3.463,3.459"
   style="fill:#d73318;fill-rule:nonzero" />
                        </g>
                    </g>
                    <g
   transform="translate(54.889,23.323)"
   id="g45">
                        <g
   id="g56">
                            <path
   id="path58"
   d="m -6.775,-3.387 c 0,1.897 -1.56,3.458 -3.457,3.46 -0.002,0 -0.004,0 -0.006,0 -1.897,0 -3.459,-1.56 -3.462,-3.457 0,0 0,-10e-4 0,-10e-4 0,-1.899 1.563,-3.462 3.462,-3.463 1.898,10e-4 3.459,1.563 3.46,3.461"
   style="fill:#d73318;fill-rule:nonzero" />
                        </g>
                    </g>
                    <g
   transform="translate(63.121,15.078)"
   id="g49">
                        <g
   id="g60">
                            <path
   id="path62"
   d="m -6.773,-3.384 c 0,1.898 -1.56,3.46 -3.458,3.462 0,0 -10e-4,0 -10e-4,0 -1.898,0 -3.46,-1.562 -3.461,-3.46 0,-1.898 1.562,-3.46 3.46,-3.461 1.898,0.001 3.459,1.561 3.46,3.459"
   style="fill:#d73318;fill-rule:nonzero" />
                        </g>
                    </g>
                    <g
   transform="translate(63.123,23.32)"
   id="g53">
                        <g
   id="g64">
                            <path
   id="path66"
   d="m -6.773,-3.386 c 0,1.897 -1.56,3.459 -3.457,3.461 -1.898,0.001 -3.461,-1.56 -3.463,-3.458 0,-1.899 1.561,-3.461 3.46,-3.463 1.898,0 3.46,1.562 3.46,3.46"
   style="fill:#d73318;fill-rule:nonzero" />
                        </g>
                    </g>
                    <g
   transform="translate(46.646,15.085)"
   id="g57">
                        <g
   id="g68">
                            <path
   id="path70"
   d="m -6.773,-3.385 c 10e-4,1.898 -1.56,3.46 -3.458,3.462 -10e-4,0 -0.002,0 -0.003,0 -1.898,0 -3.459,-1.561 -3.459,-3.459 v -0.002 c 0,-1.898 1.562,-3.46 3.46,-3.46 1.897,0.001 3.458,1.562 3.46,3.459"
   style="fill:#d73318;fill-rule:nonzero" />
                        </g>
                    </g>
                    <g
   transform="translate(21.93,6.857)"
   id="g61">
                        <g
   id="g72">
                            <path
   id="path74"
   d="m -6.773,-3.385 c 10e-4,1.898 -1.561,3.461 -3.459,3.462 -0.001,0 -0.002,0 -0.003,0 -1.898,0 -3.459,-1.561 -3.46,-3.459 0,0 0,-10e-4 0,-10e-4 0,-1.898 1.562,-3.46 3.46,-3.461 1.898,0.001 3.46,1.561 3.462,3.459"
   style="fill:#d73318;fill-rule:nonzero" />
                        </g>
                    </g>
                    <g
   transform="translate(30.168,6.852)"
   id="g65">
                        <g
   id="g76">
                            <path
   id="path78"
   d="m -6.774,-3.384 c 0,1.898 -1.56,3.46 -3.458,3.463 -0.002,0 -0.004,0 -0.006,0 -1.898,0 -3.461,-1.562 -3.462,-3.46 0,-1.898 1.562,-3.46 3.46,-3.46 0.002,0 0.003,0 0.005,0 1.897,0 3.459,1.56 3.461,3.457"
   style="fill:#d73318;fill-rule:nonzero" />
                        </g>
                    </g>
                    <g
   transform="translate(54.883,6.844)"
   id="g69">
                        <g
   id="g80">
                            <path
   id="path82"
   d="m -6.775,-3.385 c 0.001,1.898 -1.559,3.46 -3.457,3.462 -0.002,0 -0.005,0 -0.007,0 -1.898,0 -3.46,-1.561 -3.461,-3.459 10e-4,-1.899 1.563,-3.461 3.462,-3.462 1.898,-10e-4 3.461,1.561 3.463,3.459"
   style="fill:#d73318;fill-rule:nonzero" />
                        </g>
                    </g>
                    <g
   transform="translate(46.642,6.847)"
   id="g73">
                        <g
   id="g84">
                            <path
   id="path86"
   d="m -6.773,-3.385 c 10e-4,1.898 -1.559,3.46 -3.457,3.462 -10e-4,0 -10e-4,0 -0.002,0 -1.898,0 -3.46,-1.562 -3.461,-3.46 0,0 0,-10e-4 0,-10e-4 0,-1.898 1.562,-3.46 3.46,-3.461 1.898,10e-4 3.459,1.562 3.46,3.46"
   style="fill:#d73318;fill-rule:nonzero" />
                        </g>
                    </g>
                    <g
   transform="translate(46.648,23.327)"
   id="g77">
                        <g
   id="g88">
                            <path
   id="path90"
   d="m -6.773,-3.387 c 0,1.897 -1.56,3.458 -3.457,3.46 -10e-4,0 -0.003,0 -0.004,0 -1.897,0 -3.458,-1.561 -3.459,-3.458 0,-0.001 0,-0.002 0,-0.003 0,-1.898 1.562,-3.46 3.46,-3.461 1.898,0.001 3.459,1.563 3.46,3.461"
   style="fill:#d73318;fill-rule:nonzero" />
                        </g>
                    </g>
                    <g
   transform="translate(21.939,31.571)"
   id="g81">
                        <g
   id="g92">
                            <path
   id="path94"
   d="m -6.773,-3.384 c -0.001,1.898 -1.561,3.459 -3.459,3.461 -0.001,0 -0.001,0 -0.002,0 -1.898,0 -3.46,-1.562 -3.461,-3.46 0,0 0,-10e-4 0,-10e-4 0,-1.898 1.561,-3.459 3.459,-3.459 0.001,0 0.001,0 0.002,0 1.897,0 3.459,1.561 3.46,3.458"
   style="fill:#d73318;fill-rule:nonzero" />
                        </g>
                    </g>
                    <g
   transform="translate(38.414,31.563)"
   id="g85">
                        <g
   id="g96">
                            <path
   id="path98"
   d="m -6.773,-3.384 c 0,1.898 -1.561,3.461 -3.459,3.463 -1.899,-0.001 -3.461,-1.562 -3.462,-3.461 0,-1.898 1.562,-3.46 3.46,-3.46 1.898,-0.001 3.46,1.56 3.461,3.458"
   style="fill:#d73318;fill-rule:nonzero" />
                        </g>
                    </g>
                    <g
   transform="translate(30.178,31.564)"
   id="g89">
                        <g
   id="g100">
                            <path
   id="path102"
   d="m -6.774,-3.383 c 0.001,1.898 -1.56,3.461 -3.458,3.463 -0.002,0 -0.005,0 -0.007,0 -1.898,0 -3.46,-1.562 -3.461,-3.46 10e-4,-1.898 1.563,-3.46 3.461,-3.46 0.002,0 0.003,0 0.005,0 1.897,0 3.458,1.56 3.46,3.457"
   style="fill:#d73318;fill-rule:nonzero" />
                        </g>
                    </g>
                    <g
   transform="translate(54.892,31.557)"
   id="g93">
                        <g
   id="g104">
                            <path
   id="path106"
   d="m -6.775,-3.384 c 0,1.897 -1.56,3.459 -3.457,3.462 -0.002,0 -0.003,0 -0.005,0 -1.899,0 -3.461,-1.561 -3.463,-3.46 10e-4,-1.898 1.564,-3.46 3.462,-3.46 1.897,0 3.459,1.561 3.46,3.458"
   style="fill:#d73318;fill-rule:nonzero" />
                        </g>
                    </g>
                    <g
   transform="translate(46.651,31.561)"
   id="g97">
                        <g
   id="g108">
                            <path
   id="path110"
   d="m -6.773,-3.384 c 10e-4,1.897 -1.56,3.459 -3.457,3.461 -10e-4,0 -0.003,0 -0.004,0 -1.897,0 -3.458,-1.561 -3.459,-3.458 0,0 0,-0.001 0,-0.001 0,-1.898 1.562,-3.46 3.46,-3.461 1.897,0.001 3.458,1.561 3.46,3.458"
   style="fill:#d73318;fill-rule:nonzero" />
                        </g>
                    </g>
                    <g
   transform="translate(38.418,39.803)"
   id="g101">
                        <g
   id="g112">
                            <path
   id="path114"
   d="m -6.773,-3.386 c 10e-4,1.898 -1.561,3.461 -3.459,3.463 -1.898,0.001 -3.461,-1.561 -3.462,-3.459 -10e-4,-1.899 1.561,-3.462 3.46,-3.463 1.898,10e-4 3.46,1.562 3.462,3.46"
   style="fill:#d73318;fill-rule:nonzero" />
                        </g>
                    </g>
                    <g
   transform="translate(38.422,48.04)"
   id="g105">
                        <g
   id="g116">
                            <path
   id="path118"
   d="m -6.773,-3.385 c -0.001,1.898 -1.562,3.46 -3.46,3.462 -1.898,0 -3.461,-1.562 -3.462,-3.46 0,0 0,-10e-4 0,-10e-4 0,-1.898 1.561,-3.459 3.459,-3.46 1.898,-10e-4 3.461,1.561 3.463,3.459"
   style="fill:#d73318;fill-rule:nonzero" />
                        </g>
                    </g>
                    <g
   transform="translate(30.181,39.806)"
   id="g109">
                        <g
   id="g120">
                            <path
   id="path122"
   d="m -6.774,-3.385 c 0,1.898 -1.56,3.46 -3.458,3.462 -0.002,0 -0.003,0 -0.005,0 -1.899,0 -3.461,-1.561 -3.463,-3.46 0,0 0,-10e-4 0,-10e-4 0,-1.898 1.562,-3.46 3.46,-3.46 0.002,0 0.003,0 0.005,0 1.898,0 3.46,1.561 3.461,3.459"
   style="fill:#d73318;fill-rule:nonzero" />
                        </g>
                    </g>
                    <g
   transform="translate(46.657,39.799)"
   id="g113">
                        <g
   id="g124">
                            <path
   id="path126"
   d="m -6.773,-3.386 c 10e-4,1.898 -1.561,3.461 -3.459,3.463 -0.001,0 -0.002,0 -0.003,0 -1.898,0 -3.459,-1.561 -3.46,-3.459 -10e-4,-1.899 1.561,-3.462 3.46,-3.463 1.898,10e-4 3.46,1.562 3.461,3.46"
   style="fill:#d73318;fill-rule:nonzero" />
                        </g>
                    </g>
                    <g
   transform="translate(77.922,44.501)"
   id="g117">
                        <g
   id="g128">
                            <path
   id="path130"
   d="m -4.053,-15.492 h 2.785 c 3.558,0 5.183,-2.622 5.183,-5.931 0,-3.53 -1.657,-6.094 -5.463,-6.093 H -4.057 Z M -8.195,-29.2 c -0.002,-0.033 -0.002,-0.067 -0.002,-0.1 0,-1.112 0.915,-2.027 2.027,-2.027 0.032,0 0.065,0 0.097,0.002 H -1.5 c 6.177,0 9.709,3.968 9.712,10.089 0,5.792 -3.747,9.544 -9.427,9.546 h -4.8 c -0.053,0.004 -0.106,0.006 -0.159,0.006 -1.108,0 -2.021,-0.912 -2.021,-2.021 0,-0.017 10e-4,-0.035 10e-4,-0.052 z"
   style="fill:#231f20;fill-rule:nonzero" />
                        </g>
                    </g>
                    <g
   transform="translate(98.879,37.178)"
   id="g121">
                        <g
   id="g132">
                            <path
   id="path134"
   d="m -5.907,-12.038 h 5.239 l -2.567,-8 H -3.29 Z m -0.307,-10.01 c 0.4,-1.307 1.585,-2.227 2.95,-2.291 1.378,0.025 2.583,0.961 2.95,2.289 l 5.414,15 c 0.128,0.326 0.202,0.67 0.219,1.02 -0.009,1.001 -0.836,1.82 -1.837,1.82 -0.021,0 -0.042,0 -0.063,-0.001 C 2.492,-4.138 1.637,-4.744 1.4,-5.643 L 0.575,-8.234 h -7.667 l -0.826,2.565 c -0.214,0.903 -1.056,1.527 -1.982,1.469 -0.021,0.001 -0.042,0.001 -0.063,0.001 -1.067,0 -1.952,-0.864 -1.978,-1.931 0.003,-0.313 0.069,-0.622 0.193,-0.91 z"
   style="fill:#231f20;fill-rule:nonzero" />
                        </g>
                    </g>
                    <g
   transform="translate(113.674,30.355)"
   id="g125">
                        <g
   id="g136">
                            <path
   id="path138"
   d="m -4.051,-8.5 h 2.84 c 0.073,0.007 0.146,0.01 0.219,0.01 1.288,0 2.348,-1.06 2.348,-2.348 0,-0.041 -0.001,-0.081 -0.003,-0.122 0.002,-0.043 0.004,-0.086 0.004,-0.128 0,-1.269 -1.044,-2.312 -2.312,-2.312 -0.086,0 -0.172,0.004 -0.258,0.014 h -2.84 z m -4.14,-6.535 c -0.008,-0.07 -0.011,-0.141 -0.011,-0.212 0,-1.07 0.881,-1.952 1.952,-1.952 0.06,0 0.121,0.003 0.182,0.009 h 4.854 c 4.247,0 6.868,1.9 6.869,6.231 0,3.034 -2.287,4.772 -5.1,5.214 l 4.691,5.014 C 5.58,-0.413 5.778,0.022 5.8,0.483 5.807,1.631 4.877,2.585 3.729,2.607 3.118,2.61 2.534,2.348 2.129,1.89 L -4,-5.525 H -4.05 V 0.46 c 0.005,0.059 0.008,0.117 0.008,0.176 0,1.084 -0.892,1.976 -1.976,1.976 -0.032,0 -0.065,0 -0.097,-0.002 -0.034,0.002 -0.067,0.003 -0.101,0.003 -1.084,0 -1.976,-0.892 -1.976,-1.976 0,-0.059 0.003,-0.118 0.008,-0.176 z"
   style="fill:#231f20;fill-rule:nonzero" />
                        </g>
                    </g>
                    <g
   transform="translate(120.647,17.257)"
   id="g129">
                        <g
   id="g140">
                            <path
   id="path142"
   d="m 0,-2.111 c -0.005,-0.059 -0.008,-0.119 -0.008,-0.178 0,-1.084 0.892,-1.976 1.976,-1.976 0.033,0 0.066,0 0.099,0.002 0.033,-0.002 0.067,-0.003 0.1,-0.003 1.084,0 1.977,0.893 1.977,1.977 0,0.059 -0.003,0.118 -0.008,0.176 V 7.511 C 4.128,7.619 4.123,7.728 4.123,7.836 c 0,2.317 1.907,4.223 4.223,4.223 0.013,0 0.026,0 0.039,0 2.335,-0.057 4.224,-1.993 4.224,-4.329 0,-0.074 -0.002,-0.148 -0.006,-0.222 v -9.624 c -0.005,-0.059 -0.008,-0.118 -0.008,-0.177 0,-1.085 0.892,-1.977 1.977,-1.977 0.033,0 0.065,0 0.098,0.002 0.033,-0.002 0.067,-0.003 0.1,-0.003 1.084,0 1.977,0.893 1.977,1.977 0,0.059 -0.003,0.118 -0.008,0.176 v 9.845 c -0.033,4.475 -3.724,8.139 -8.2,8.139 -0.05,0 -0.099,0 -0.149,-10e-4 C 8.311,15.867 8.232,15.868 8.153,15.868 3.687,15.868 0.01,12.199 0,7.733 Z"
   style="fill:#231f20;fill-rule:nonzero" />
                        </g>
                    </g>
                    <g
   transform="translate(158.917,41.248)"
   id="g133">
                        <g
   id="g144">
                            <path
   id="path146"
   d="m -10.308,-13.979 c 0,4.633 -2.948,5.848 -5.458,5.849 -1.9,0 -5.074,-0.742 -5.076,-3.142 0.005,-0.869 0.677,-1.601 1.542,-1.682 1.1,0 2.068,1.019 3.309,1.019 1.545,0 1.544,-1.434 1.543,-2.317 V -26.11 c -0.005,-0.059 -0.008,-0.117 -0.008,-0.176 0,-1.085 0.893,-1.978 1.978,-1.978 0.032,0 0.065,0 0.097,0.002 0.033,-0.002 0.067,-0.003 0.1,-0.003 1.084,0 1.977,0.893 1.977,1.977 0,0.059 -0.003,0.118 -0.008,0.176 z"
   style="fill:#231f20;fill-rule:nonzero" />
                        </g>
                    </g>
                    <g
   transform="translate(174.585,18.267)"
   id="g137">
                        <g
   id="g148">
                            <path
   id="path150"
   d="m -12.057,-2.7 c 0.003,0.045 0.005,0.09 0.005,0.135 0,1.025 -0.824,1.876 -1.848,1.91 -1.131,0 -2.014,-0.826 -3.669,-0.825 -1.185,0 -2.26,0.635 -2.259,1.792 0,2.841 9.21,1.018 9.215,8.133 0,3.943 -3.252,6.4 -7.058,6.4 -2.123,0 -6.7,-0.494 -6.7,-3.086 -0.003,-0.04 -0.004,-0.079 -0.004,-0.119 0,-1.009 0.831,-1.84 1.84,-1.84 0.001,0 0.003,0 0.004,0 1.3,0 2.84,1.074 4.634,1.074 1.819,0 2.812,-1.022 2.812,-2.372 0,-3.255 -9.213,-1.295 -9.215,-7.692 0,-3.861 3.169,-6.261 6.837,-6.262 1.543,0 5.405,0.577 5.405,2.755"
   style="fill:#d73318;fill-rule:nonzero" />
                        </g>
                    </g>
                    <g
   transform="translate(173.915,31.912)"
   id="g141">
                        <g
   id="g152">
                            <path
   id="path154"
   d="m -4.052,-9.285 h 2.812 c 0.029,10e-4 0.057,10e-4 0.086,10e-4 1.514,0 2.759,-1.245 2.759,-2.759 0,-0.055 -0.002,-0.111 -0.005,-0.167 0.003,-0.055 0.005,-0.11 0.005,-0.165 0,-1.514 -1.245,-2.759 -2.759,-2.759 -0.029,0 -0.058,0 -0.087,0.001 h -2.813 z m -4.14,-7.334 c -0.005,-0.058 -0.008,-0.116 -0.008,-0.175 0,-1.088 0.896,-1.985 1.985,-1.985 0.058,0 0.116,0.003 0.173,0.008 h 4.881 c 4.055,0 7.063,2.645 7.063,6.588 0,4.026 -3.113,6.537 -6.892,6.539 h -3.061 v 4.521 c 0.005,0.059 0.008,0.119 0.008,0.178 0,1.085 -0.892,1.977 -1.977,1.977 -0.032,0 -0.065,0 -0.097,-0.002 -0.033,0.002 -0.066,0.002 -0.099,0.002 -1.085,0 -1.978,-0.892 -1.978,-1.978 0,-0.058 0.003,-0.116 0.008,-0.174 z"
   style="fill:#d73318;fill-rule:nonzero" />
                        </g>
                    </g>
                    <g
   transform="translate(189.243,30.325)"
   id="g145">
                        <g
   id="g156">
                            <path
   id="path158"
   d="m -4.052,-8.5 h 2.84 c 0.074,0.007 0.147,0.01 0.221,0.01 1.287,0 2.345,-1.058 2.345,-2.345 0,-0.041 -0.001,-0.083 -0.003,-0.125 0.002,-0.043 0.004,-0.086 0.004,-0.13 0,-1.267 -1.044,-2.311 -2.311,-2.311 -0.087,0 -0.173,0.005 -0.259,0.015 h -2.839 z m -4.14,-6.535 c -0.007,-0.07 -0.011,-0.139 -0.011,-0.209 0,-1.072 0.881,-1.953 1.953,-1.953 0.06,0 0.12,0.002 0.18,0.008 h 4.855 c 4.245,0 6.867,1.9 6.869,6.231 0,3.034 -2.287,4.772 -5.1,5.214 l 4.69,5.013 C 5.579,-0.414 5.778,0.021 5.8,0.482 5.808,1.631 4.877,2.586 3.728,2.607 3.117,2.609 2.533,2.348 2.128,1.891 L -4,-5.526 h -0.056 v 5.985 c 0.005,0.059 0.008,0.118 0.008,0.177 0,1.084 -0.892,1.976 -1.976,1.976 -0.031,0 -0.061,-10e-4 -0.092,-0.002 -0.033,0.002 -0.067,0.003 -0.1,0.003 -1.084,0 -1.977,-0.893 -1.977,-1.977 0,-0.059 0.003,-0.118 0.008,-0.176 z"
   style="fill:#d73318;fill-rule:nonzero" />
                        </g>
                    </g>
                    <g
   transform="translate(207.145,37.136)"
   id="g149">
                        <g
   id="g160">
                            <path
   id="path162"
   d="m -5.908,-12.038 h 5.241 l -2.567,-8 h -0.053 z m -0.3,-10.011 c 0.399,-1.307 1.584,-2.227 2.949,-2.29 1.377,0.026 2.58,0.961 2.947,2.288 l 5.411,15 c 0.129,0.326 0.203,0.671 0.22,1.021 -0.008,1.002 -0.834,1.822 -1.836,1.822 -0.021,0 -0.043,0 -0.064,-10e-4 -0.926,0.07 -1.779,-0.537 -2.014,-1.436 l -0.83,-2.59 H -7.09 l -0.827,2.565 c -0.215,0.903 -1.056,1.527 -1.983,1.47 -0.02,0.001 -0.04,0.001 -0.06,0.001 -1.068,0 -1.955,-0.864 -1.983,-1.932 0.004,-0.313 0.07,-0.621 0.193,-0.909 z"
   style="fill:#d73318;fill-rule:nonzero" />
                        </g>
                    </g>
                    <g
   transform="translate(210.735,18.914)"
   id="g153">
                        <g
   id="g164">
                            <path
   id="path166"
   d="M -0.189,-2.947 C -0.322,-3.27 -0.388,-3.617 -0.382,-3.967 -0.343,-5.093 0.613,-5.99 1.74,-5.955 2.582,-5.928 3.327,-5.39 3.617,-4.6 L 7.9,6.866 12.17,-4.607 c 0.289,-0.789 1.032,-1.326 1.872,-1.352 1.127,-0.035 2.084,0.859 2.127,1.985 0.005,0.35 -0.06,0.697 -0.193,1.02 l -6.04,15.363 c -0.228,0.938 -1.075,1.604 -2.04,1.604 -0.966,0 -1.813,-0.666 -2.041,-1.604 z"
   style="fill:#d73318;fill-rule:nonzero" />
                        </g>
                    </g>
                    <g
   transform="translate(227.86,17.215)"
   id="g157">
                        <g
   id="g168">
                            <path
   id="path170"
   d="m 0,-2.112 c -0.005,-0.059 -0.008,-0.119 -0.008,-0.178 0,-1.084 0.892,-1.976 1.976,-1.976 0.033,0 0.066,0 0.099,0.002 0.676,0.063 1.3,0.39 1.736,0.91 L 12.55,8.308 h 0.056 V -2.117 c -0.005,-0.059 -0.008,-0.118 -0.008,-0.176 0,-1.086 0.893,-1.978 1.978,-1.978 0.033,0 0.065,0 0.098,0.002 0.033,-0.002 0.066,-0.002 0.099,-0.002 1.085,0 1.979,0.893 1.979,1.979 0,0.058 -0.003,0.116 -0.008,0.174 v 15.663 c 0.006,0.06 0.008,0.12 0.008,0.181 0,1.084 -0.892,1.977 -1.977,1.977 -0.033,0 -0.067,-10e-4 -0.1,-0.003 C 14.001,15.631 13.38,15.305 12.94,14.79 L 4.191,3.265 H 4.138 V 13.55 c 0.005,0.059 0.008,0.118 0.008,0.177 0,1.084 -0.892,1.975 -1.975,1.975 -0.032,0 -0.065,0 -0.097,-0.002 -0.034,0.002 -0.068,0.003 -0.103,0.003 -1.085,0 -1.979,-0.894 -1.979,-1.979 0,-0.058 0.003,-0.116 0.008,-0.173 z"
   style="fill:#d73318;fill-rule:nonzero" />
                        </g>
                    </g>
                    <g
   transform="translate(246.91,17.862)"
   id="g161">
                        <g
   id="g172">
                            <path
   id="path174"
   d="m 0,-2.352 c 0,-1.379 0.688,-2.4 2.148,-2.4 h 6.84 c 0.041,-0.003 0.083,-0.004 0.124,-0.004 1.007,0 1.835,0.828 1.835,1.835 0,0.023 0,0.046 -10e-4,0.069 0,0.012 0,0.023 0,0.035 0,1.024 -0.842,1.867 -1.867,1.867 -0.03,0 -0.061,-0.001 -0.091,-0.002 H 4.136 V 3.075 H 8.659 C 8.707,3.071 8.756,3.069 8.804,3.069 c 1.026,0 1.869,0.844 1.869,1.869 v 0.04 c 0,1.043 -0.858,1.9 -1.9,1.9 -0.038,0 -0.076,-0.001 -0.114,-0.003 H 4.14 v 4.191 h 5.1 c 0.042,-0.003 0.084,-0.004 0.125,-0.004 1.006,0 1.834,0.828 1.834,1.834 0,0.023 0,0.047 -10e-4,0.07 0,0.012 0,0.023 0,0.035 0,1.024 -0.842,1.867 -1.867,1.867 -0.03,0 -0.061,-10e-4 -0.091,-0.002 H 2.124 C 2.087,14.868 2.05,14.869 2.014,14.869 0.909,14.869 0,13.96 0,12.855 0,12.842 0,12.829 0,12.816 Z"
   style="fill:#d73318;fill-rule:nonzero" />
                        </g>
                    </g>
                    <g
   transform="translate(264.238,28.769)"
   id="g165">
                        <g
   id="g176">
                            <path
   id="path178"
   d="M -2.1,0 C -0.922,0.003 0.045,0.972 0.046,2.15 0.045,3.328 -0.922,4.297 -2.1,4.3 -3.28,4.299 -4.251,3.33 -4.253,2.15 -4.251,0.97 -3.28,0.001 -2.1,0"
   style="fill:#231f20;fill-rule:nonzero" />
                        </g>
                    </g>
                    <g
   transform="translate(285.054,12.769)"
   id="g169">
                        <g
   id="g180">
                            <path
   id="path182"
   d="m -9.279,0 c 2.014,0 5.929,0.66 5.932,3.086 0.002,0.033 0.003,0.066 0.003,0.098 0,0.946 -0.766,1.729 -1.711,1.751 -1.13,0 -1.9,-0.964 -4.22,-0.964 -3.42,0 -5.183,2.9 -5.181,6.262 0,3.282 1.795,6.094 5.185,6.092 2.317,0 3.254,-1.16 4.385,-1.16 0.995,0.062 1.789,0.879 1.821,1.875 0,2.646 -4.163,3.255 -6.2,3.256 -5.6,0 -9.489,-4.436 -9.491,-10.145 C -18.763,4.417 -14.9,0 -9.279,0"
   style="fill:#231f20;fill-rule:nonzero" />
                        </g>
                    </g>
                    <g
   transform="translate(309.304,44.739)"
   id="g173">
                        <g
   id="g184">
                            <path
   id="path186"
   d="m -12.872,-15.653 c 0.073,-0.009 0.146,-0.014 0.219,-0.014 0.971,0 1.769,0.799 1.769,1.769 0,0.022 0,0.043 -10e-4,0.064 -0.066,1.035 -0.948,1.844 -1.985,1.821 h -10.839 c -1.462,0 -2.317,-0.827 -2.317,-1.985 0.011,-0.578 0.204,-1.138 0.552,-1.6 l 8.874,-12.409 h -7.253 c -0.064,0.007 -0.128,0.011 -0.192,0.011 -0.954,0 -1.739,-0.785 -1.739,-1.739 0,-0.012 0,-0.024 0,-0.036 0.016,-1.043 0.886,-1.889 1.929,-1.876 h 10.094 c 0.086,-0.011 0.174,-0.017 0.261,-0.017 1.107,0 2.026,0.895 2.055,2.002 -0.015,0.637 -0.226,1.253 -0.605,1.765 l -8.82,12.248 z"
   style="fill:#231f20;fill-rule:nonzero" />
                        </g>
                    </g>
                </g>
            </g>
        </g>
    </g>
</svg>
